<svg width="23" height="23" viewBox="0 0 23 23" fill="none" xmlns="http://www.w3.org/2000/svg">
<path d="M3.77562 16.3739C2.78051 16.3744 1.97191 15.5647 1.97173 14.5698L1.97137 9.04638C1.97102 8.05235 2.77943 7.24286 3.77328 7.24268C4.25646 7.24232 4.70891 7.42973 5.04996 7.77042C5.39101 8.11111 5.5786 8.56428 5.57896 9.04602L5.57842 14.5696C5.57967 14.8064 5.53374 15.0411 5.44332 15.2599C5.35289 15.4788 5.21978 15.6775 5.05176 15.8443C4.88474 16.0127 4.68591 16.1463 4.46684 16.2372C4.24776 16.3281 4.0128 16.3745 3.77562 16.3739ZM3.77418 7.72729C3.04591 7.72693 2.45563 8.31865 2.45545 9.04638L2.45635 14.5693C2.4563 14.9192 2.59522 15.2549 2.84257 15.5025C3.08992 15.7501 3.42546 15.8893 3.77544 15.8896C3.94874 15.8896 4.12035 15.8555 4.28045 15.7891C4.44055 15.7228 4.586 15.6255 4.70848 15.5029C4.83096 15.3803 4.92806 15.2347 4.99424 15.0746C5.06042 14.9144 5.09438 14.7427 5.09416 14.5694V9.04566C5.09378 8.69584 4.95454 8.36049 4.70703 8.11328C4.45952 7.86608 4.124 7.72725 3.77418 7.72729Z" fill="white"/>
<path d="M17.9224 8.00095L17.4376 8.00078L5.55681 8.00239L5.07183 8.00257L5.07147 7.5176C5.07039 5.52666 6.15499 3.67498 7.93156 2.58104L7.24084 1.32017C7.15639 1.17247 7.13518 0.985415 7.18442 0.814353C7.20937 0.729036 7.25104 0.649532 7.307 0.580464C7.36296 0.511396 7.43209 0.454142 7.51037 0.412033C7.60715 0.358743 7.71596 0.331093 7.82644 0.331712C8.07118 0.331712 8.29525 0.464501 8.41348 0.679048L9.13636 1.99598C9.89033 1.72004 10.6872 1.57982 11.4901 1.5818C12.3177 1.58144 13.1114 1.72142 13.8627 1.99706L14.5845 0.67797C14.642 0.572732 14.7268 0.484943 14.83 0.423848C14.9331 0.362753 15.0509 0.330613 15.1708 0.330814C15.2812 0.330465 15.3899 0.357508 15.4872 0.409517C15.5657 0.451611 15.6348 0.508997 15.6907 0.578284C15.7466 0.647571 15.788 0.727354 15.8125 0.812915C15.8372 0.897289 15.8448 0.98573 15.835 1.07309C15.8252 1.16045 15.7981 1.24499 15.7553 1.32179L15.065 2.58194C16.8387 3.67821 17.922 5.52845 17.9218 7.51598L17.9224 8.00095ZM14.4102 2.76774L15.3307 1.08676C15.3439 1.06564 15.3526 1.04207 15.3563 1.01748C15.36 0.992884 15.3587 0.967789 15.3524 0.943723C15.3462 0.919656 15.335 0.897123 15.3197 0.877499C15.3045 0.857874 15.2853 0.841569 15.2635 0.829578C15.2418 0.817588 15.2177 0.810164 15.193 0.807758C15.1682 0.805353 15.1432 0.808017 15.1196 0.815588C15.0959 0.823159 15.074 0.835478 15.0552 0.851794C15.0364 0.86811 15.0212 0.88808 15.0103 0.910486L14.0803 2.60853C13.2979 2.26102 12.4219 2.0657 11.496 2.0666C10.5721 2.0657 9.69771 2.2603 8.91768 2.60656L7.98672 0.912283C7.97536 0.891108 7.9599 0.872404 7.94125 0.857257C7.92259 0.842109 7.90111 0.830822 7.87805 0.82405C7.855 0.817279 7.83083 0.815159 7.80694 0.817812C7.78306 0.820466 7.75994 0.827841 7.73893 0.839509C7.64963 0.887306 7.61675 0.999611 7.66652 1.0873L8.58742 2.76702C6.77796 3.70031 5.55537 5.47742 5.55645 7.51778L17.437 7.51634C17.4376 5.47671 16.2171 3.70319 14.4102 2.76774ZM8.79388 5.36548C8.66175 5.36541 8.53507 5.31285 8.44169 5.21937C8.34831 5.12589 8.29589 4.99915 8.29596 4.86702C8.29604 4.7349 8.34859 4.60821 8.44207 4.51483C8.53555 4.42146 8.66229 4.36904 8.79442 4.36911C8.92656 4.36935 9.05322 4.42193 9.14668 4.51536C9.24013 4.60878 9.29277 4.73542 9.29305 4.86756C9.29286 4.99978 9.24017 5.1265 9.14656 5.21988C9.05295 5.31325 8.92609 5.36562 8.79388 5.36548ZM14.2037 5.3644C14.1383 5.36452 14.0735 5.35172 14.013 5.32674C13.9525 5.30176 13.8976 5.2651 13.8513 5.21884C13.8051 5.17258 13.7684 5.11765 13.7434 5.05718C13.7184 4.99672 13.7055 4.93191 13.7056 4.86649C13.7061 4.7344 13.7587 4.60784 13.852 4.51436C13.9454 4.42087 14.0718 4.36802 14.2039 4.36731C14.3358 4.3684 14.462 4.42143 14.555 4.5149C14.6481 4.60837 14.7006 4.73476 14.7011 4.86667C14.7011 4.93201 14.6883 4.99671 14.6633 5.05709C14.6383 5.11746 14.6017 5.17232 14.5555 5.21854C14.5093 5.26476 14.4545 5.30143 14.3941 5.32646C14.3338 5.35148 14.2691 5.36438 14.2037 5.3644ZM9.29179 22.6692C8.29758 22.669 7.48845 21.8604 7.48827 20.8655L7.48791 18.4277L7.01389 18.4282C6.76527 18.4291 6.51895 18.3806 6.28921 18.2855C6.05948 18.1904 5.8509 18.0507 5.67558 17.8744C5.49904 17.6991 5.35915 17.4905 5.26404 17.2606C5.16893 17.0307 5.12051 16.7842 5.12161 16.5354L5.11981 7.97742V7.49208H5.60479L17.3964 7.49028L17.8816 7.48992V7.9749L17.8828 16.534C17.883 17.5778 17.0338 18.4271 15.9904 18.427L15.5135 18.4273L15.514 20.8642C15.514 21.8586 14.7051 22.6681 13.7112 22.6681C13.4742 22.6692 13.2394 22.6231 13.0204 22.5325C12.8014 22.4419 12.6027 22.3086 12.4358 22.1404C12.2674 21.9736 12.1339 21.7749 12.043 21.556C11.9521 21.3371 11.9056 21.1023 11.9062 20.8653V18.4273H11.0957V20.8648C11.0953 21.8594 10.2865 22.6694 9.29179 22.6692Z" fill="white"/>
<path d="M5.60714 16.5353C5.60673 16.7203 5.64285 16.9035 5.71341 17.0744C5.78397 17.2454 5.88758 17.4007 6.01831 17.5316C6.14904 17.6624 6.30432 17.7661 6.47523 17.8368C6.64613 17.9075 6.82932 17.9438 7.01427 17.9435H7.97254L7.97362 20.866C7.97344 21.5937 8.56461 22.185 9.29163 22.1852C9.46491 22.1851 9.63647 22.1509 9.79652 22.0845C9.95657 22.0181 10.102 21.9208 10.2244 21.7982C10.3469 21.6756 10.4439 21.53 10.5101 21.3699C10.5763 21.2098 10.6103 21.0382 10.6102 20.8649L10.6104 17.9433L12.3909 17.9428L12.3907 20.8651C12.3914 21.593 12.9833 22.185 13.7101 22.1836C14.439 22.1841 15.0298 21.5921 15.0296 20.864L15.0287 17.9424L15.9906 17.9423C16.7666 17.9424 17.3979 17.3119 17.3979 16.534L17.3963 7.97463L5.60498 7.97679L5.60714 16.5353ZM19.2258 16.3718C18.2311 16.372 17.4219 15.5636 17.4221 14.5684L17.4207 9.04521C17.4211 8.05028 18.2289 7.24097 19.2231 7.24097C20.2186 7.24079 21.0283 8.04992 21.0281 9.04467L21.0286 14.5675C21.0288 15.5619 20.2204 16.372 19.2258 16.3718ZM19.224 7.72594C18.4958 7.72522 17.9057 8.31658 17.9057 9.04521L17.9062 14.5683C17.9061 14.7415 17.9402 14.9131 18.0064 15.0732C18.0727 15.2333 18.1699 15.3787 18.2924 15.5012C18.415 15.6237 18.5604 15.7208 18.7205 15.7871C18.8806 15.8533 19.0522 15.8873 19.2255 15.8872C19.3987 15.8872 19.5702 15.853 19.7303 15.7867C19.8903 15.7204 20.0357 15.6232 20.1581 15.5007C20.2806 15.3781 20.3777 15.2327 20.4439 15.0726C20.5101 14.9125 20.5441 14.741 20.544 14.5677L20.5426 9.04485C20.5427 8.87164 20.5087 8.70012 20.4425 8.54007C20.3762 8.38002 20.2791 8.2346 20.1567 8.11211C20.0342 7.98961 19.8888 7.89246 19.7288 7.8262C19.5688 7.75994 19.3972 7.72587 19.224 7.72594Z" fill="white"/>
<path d="M3.77417 7.72742C3.0459 7.72706 2.45562 8.31877 2.45544 9.0465L2.45634 14.5694C2.45622 14.7427 2.49027 14.9143 2.55652 15.0744C2.62278 15.2345 2.71995 15.38 2.84247 15.5026C2.965 15.6251 3.11048 15.7223 3.27059 15.7886C3.43071 15.8548 3.60232 15.8889 3.77561 15.8888C3.94888 15.889 4.12048 15.855 4.28058 15.7888C4.44069 15.7225 4.58615 15.6253 4.70864 15.5028C4.83112 15.3802 4.92823 15.2347 4.99438 15.0746C5.06053 14.9144 5.09444 14.7428 5.09416 14.5696V9.04578C5.09377 8.69597 4.95453 8.36061 4.70702 8.1134C4.45951 7.8662 4.12399 7.72737 3.77417 7.72742ZM14.4102 2.76768L15.3308 1.0867C15.3542 1.04406 15.3598 0.993859 15.3463 0.947106C15.3328 0.900353 15.3013 0.860864 15.2587 0.837297C15.2161 0.814224 15.166 0.808965 15.1195 0.822666C15.073 0.836368 15.0337 0.867918 15.0104 0.91043L14.0805 2.60902C13.2981 2.26078 12.4225 2.06564 11.4961 2.06654C10.5721 2.06564 9.69685 2.26024 8.91773 2.6065L7.98676 0.912227C7.9754 0.891078 7.95995 0.872395 7.94131 0.857259C7.92268 0.842123 7.90122 0.830836 7.87819 0.82405C7.85516 0.817265 7.83101 0.815117 7.80715 0.81773C7.78328 0.820343 7.76017 0.827666 7.73915 0.839274C7.71794 0.850615 7.69919 0.866073 7.68402 0.884745C7.66885 0.903416 7.65755 0.924926 7.65079 0.948016C7.64403 0.971106 7.64195 0.995312 7.64465 1.01922C7.64736 1.04312 7.65481 1.06625 7.66656 1.08724L8.58746 2.76714C6.77801 3.70026 5.55541 5.47737 5.55649 7.51772L17.4371 7.51628C17.4376 5.47665 16.2172 3.70313 14.4102 2.76768ZM8.79392 5.36542C8.66179 5.36535 8.53511 5.3128 8.44173 5.21932C8.34835 5.12584 8.29594 4.9991 8.29601 4.86697C8.29608 4.73484 8.34863 4.60816 8.44211 4.51478C8.53559 4.4214 8.66233 4.36898 8.79446 4.36906C8.9266 4.36929 9.05327 4.42188 9.14672 4.5153C9.24018 4.60872 9.29281 4.73537 9.29309 4.86751C9.2929 4.99972 9.24021 5.12645 9.1466 5.21982C9.05299 5.31319 8.92614 5.36557 8.79392 5.36542ZM14.2038 5.36434C14.1384 5.36439 14.0736 5.35155 14.0131 5.32654C13.9527 5.30154 13.8978 5.26487 13.8515 5.21862C13.8053 5.17238 13.7686 5.11748 13.7435 5.05704C13.7185 4.99661 13.7057 4.93184 13.7057 4.86643C13.7064 4.73441 13.7591 4.60799 13.8523 4.51456C13.9456 4.42112 14.0719 4.3682 14.204 4.36726C14.3359 4.36834 14.462 4.42137 14.5551 4.51484C14.6482 4.60832 14.7006 4.7347 14.7011 4.86661C14.7012 4.93196 14.6884 4.99669 14.6634 5.05709C14.6385 5.11748 14.6018 5.17236 14.5556 5.21859C14.5095 5.26482 14.4546 5.30149 14.3942 5.3265C14.3338 5.35151 14.2691 5.36437 14.2038 5.36434ZM5.60501 7.97664L5.60698 16.5361C5.60677 16.7209 5.64303 16.904 5.71368 17.0748C5.78433 17.2457 5.88799 17.4009 6.01871 17.5316C6.14944 17.6623 6.30466 17.7659 6.4755 17.8366C6.64634 17.9072 6.82943 17.9434 7.0143 17.9432L7.97257 17.9435L7.97365 20.866C7.97347 21.5937 8.565 22.1853 9.29166 22.1853C10.0205 22.1853 10.6109 21.5932 10.6111 20.8651L10.6104 17.9434L12.3909 17.9428L12.3916 20.8651C12.3916 21.5923 12.9833 22.1851 13.7102 22.1836C14.439 22.1842 15.0298 21.5921 15.0296 20.864L15.0287 17.9425L15.9904 17.9417C16.1753 17.9418 16.3584 17.9054 16.5292 17.8347C16.7 17.7639 16.8552 17.6602 16.986 17.5295C17.1167 17.3988 17.2204 17.2436 17.2912 17.0728C17.362 16.902 17.3984 16.719 17.3984 16.5341L17.3968 7.97466L5.60501 7.97664ZM20.5431 9.04452C20.5432 8.87131 20.5091 8.69979 20.4428 8.53976C20.3765 8.37973 20.2793 8.23433 20.1568 8.11186C20.0343 7.9894 19.8889 7.89227 19.7289 7.82603C19.5688 7.75979 19.3973 7.72573 19.2241 7.7258C18.4958 7.72508 17.9057 8.31643 17.9057 9.04506L17.9068 14.5683C17.9067 14.7415 17.9407 14.913 18.0069 15.0731C18.0731 15.2331 18.1703 15.3786 18.2928 15.501C18.4152 15.6235 18.5607 15.7207 18.7207 15.7869C18.8808 15.8531 19.0523 15.8871 19.2255 15.887C19.3987 15.887 19.5703 15.8529 19.7303 15.7866C19.8904 15.7203 20.0358 15.6231 20.1582 15.5006C20.2807 15.378 20.3778 15.2326 20.444 15.0725C20.5102 14.9124 20.5442 14.7408 20.544 14.5676L20.5431 9.04452Z" fill="#A4C439"/>
</svg>
