<svg width="23" height="23" viewBox="0 0 23 23" fill="none" xmlns="http://www.w3.org/2000/svg">
<path d="M17.5923 12.1981C17.6236 15.5762 20.5561 16.7005 20.5884 16.7149C20.5636 16.794 20.12 18.317 19.0436 19.8898C18.1132 21.2497 17.1474 22.6045 15.6263 22.6329C14.1317 22.6602 13.651 21.7463 11.942 21.7463C10.2336 21.7463 9.6997 22.6045 8.28467 22.6602C6.81626 22.7159 5.69806 21.1895 4.75992 19.8348C2.84301 17.0633 1.37802 12.0032 3.34506 8.58747C4.3222 6.89122 6.06876 5.81723 7.96428 5.78956C9.4061 5.76207 10.767 6.75951 11.6484 6.75951C12.5292 6.75951 14.1831 5.55992 15.9217 5.73601C16.6497 5.76638 18.6927 6.02998 20.0046 7.95048C19.8991 8.01607 17.567 9.37379 17.5923 12.1981ZM14.7832 3.90266C15.5627 2.95912 16.0874 1.64525 15.9444 0.338379C14.8206 0.38348 13.4618 1.08714 12.6559 2.03032C11.9336 2.86532 11.3011 4.2022 11.4716 5.48319C12.7242 5.58022 14.0036 4.84674 14.7832 3.90266Z" fill="white"/>
</svg>
