<svg width="23" height="23" viewBox="0 0 23 23" fill="none" xmlns="http://www.w3.org/2000/svg">
<path d="M11.3906 2.20083C10.632 2.20442 9.90783 2.26893 9.27029 2.38177C7.39256 2.71347 7.05187 3.40779 7.05187 4.68842V6.37946H11.4889V6.94314H5.38653C4.09709 6.94314 2.96793 7.71813 2.61467 9.19301C2.20714 10.883 2.18917 11.9377 2.61467 13.7024C2.93002 15.0161 3.68327 15.952 4.97289 15.952H6.49861V13.9247C6.49861 12.4601 7.76559 11.1683 9.27047 11.1683H13.7025C14.9362 11.1683 15.9209 10.1524 15.9209 8.91359V4.6886C15.9209 3.48595 14.9064 2.58266 13.7025 2.38195C12.9399 2.25509 12.1491 2.19741 11.3906 2.20083V2.20083ZM8.99106 3.56088C9.44926 3.56088 9.82373 3.94128 9.82373 4.40919C9.82373 4.87512 9.44944 5.25192 8.99106 5.25192C8.53106 5.25192 8.15857 4.87512 8.15857 4.40919C8.15839 3.94128 8.53106 3.56088 8.99106 3.56088V3.56088Z" fill="url(#paint0_linear_62_153)"/>
<path d="M16.4742 6.94305V8.9135C16.4742 10.4408 15.179 11.7265 13.7023 11.7265H9.2703C8.05633 11.7265 7.05188 12.7656 7.05188 13.9814V18.2068C7.05188 19.4091 8.0973 20.1165 9.2703 20.4613C10.6747 20.874 12.0217 20.9488 13.7023 20.4613C14.8192 20.1377 15.9207 19.4869 15.9207 18.2068V16.5155H11.4889V15.9517H18.1395C19.4289 15.9517 19.9098 15.0523 20.3583 13.7022C20.8215 12.3123 20.8016 10.9756 20.3583 9.19274C20.0395 7.90887 19.4309 6.94287 18.1395 6.94287H16.4742V6.94305ZM13.9813 17.6429C14.4415 17.6429 14.814 18.0197 14.814 18.486C14.814 18.9535 14.4413 19.3339 13.9813 19.3339C13.5231 19.3339 13.1489 18.9535 13.1489 18.486C13.1489 18.0197 13.5231 17.6429 13.9813 17.6429V17.6429Z" fill="url(#paint1_linear_62_153)"/>
<path opacity="0.444" d="M17.4852 21.49C17.4852 22.1266 14.8229 22.6428 11.5391 22.6428C8.25515 22.6428 5.5929 22.1266 5.5929 21.49C5.5929 20.8532 8.25497 20.3369 11.5391 20.3369C14.8229 20.3369 17.4852 20.853 17.4852 21.49Z" fill="url(#paint2_radial_62_153)"/>
<defs>
<linearGradient id="paint0_linear_62_153" x1="1.85744" y1="2.72958" x2="12.0913" y2="11.457" gradientUnits="userSpaceOnUse">
<stop stop-color="#5A9FD4"/>
<stop offset="1" stop-color="#306998"/>
</linearGradient>
<linearGradient id="paint1_linear_62_153" x1="15.9417" y1="16.882" x2="12.2717" y2="11.7354" gradientUnits="userSpaceOnUse">
<stop stop-color="#FFD43B"/>
<stop offset="1" stop-color="#FFE873"/>
</linearGradient>
<radialGradient id="paint2_radial_62_153" cx="0" cy="0" r="1" gradientUnits="userSpaceOnUse" gradientTransform="translate(11.5151 21.457) rotate(-90) scale(1.15329 5.06968)">
<stop stop-color="#B8B8B8" stop-opacity="0.498"/>
<stop offset="1" stop-color="#7F7F7F" stop-opacity="0"/>
</radialGradient>
</defs>
</svg>
